<svg width="17" height="17" viewBox="0 0 17 17" fill="none" xmlns="http://www.w3.org/2000/svg">
<g clip-path="url(#clip0_1:63)">
<path d="M8.3324 5.52396C6.85272 5.52396 5.65048 6.69928 5.65048 8.14582C5.65048 9.59237 6.85272 10.7677 8.3324 10.7677C9.81207 10.7677 11.0143 9.59237 11.0143 8.14582C11.0143 6.69928 9.81207 5.52396 8.3324 5.52396ZM8.12894 7.36831C7.79601 7.36831 7.51857 7.63953 7.51857 7.96501H6.63077C6.64926 7.15133 7.31512 6.50038 8.12894 6.50038V7.36831Z" fill="#E74266"/>
<path d="M16.4706 7.60338C15.5643 6.50039 12.3275 2.90212 8.33242 2.90212C4.3373 2.90212 1.10051 6.50039 0.194207 7.60338C-0.0647358 7.91077 -0.0647358 8.36282 0.194207 8.68829C1.10051 9.79128 4.3373 13.3895 8.33242 13.3895C12.3275 13.3895 15.5643 9.79128 16.4706 8.68829C16.7296 8.3809 16.7296 7.92885 16.4706 7.60338ZM8.33242 11.943C6.18689 11.943 4.44827 10.2433 4.44827 8.14583C4.44827 6.04835 6.18689 4.34866 8.33242 4.34866C10.4779 4.34866 12.2166 6.04835 12.2166 8.14583C12.2166 10.2433 10.4779 11.943 8.33242 11.943Z" fill="#E74266"/>
</g>
<defs>
<clipPath id="clip0_1:63">
<rect width="16.6648" height="16.2917" fill="white"/>
</clipPath>
</defs>
</svg>
